{"asset":{"version":"2.0","generator":"Unity 6000.2.4f1 glTFast 6.0.1"},"nodes":[{"name":"Forklift_01","mesh":0},{"name":"ForksCollider (1)","translation":[0.237,0.02499998,0.53],"scale":[0.105,0.05,1]},{"name":"ForksCollider (2)","translation":[-0.237,0.02499998,0.53],"scale":[0.105,0.049999997,1]},{"name":"ForksCollider (3)","translation":[0.237,0.305,0.012],"scale":[0.105,0.61,0.05]},{"name":"ForksCollider (4)","translation":[-0.237,0.305,0.0119999945],"scale":[0.105,0.61,0.049999997]},{"name":"ForksCollider (5)","translation":[0,0.545,-0.021],"scale":[0.99,1,0.045]},{"name":"Colliders","children":[1,2,3,4,5]},{"name":"Forks","children":[6],"mesh":1,"translation":[0,-0.05,0]},{"name":"ForksCylinders","children":[7],"translation":[0,0.009,0.125]},{"name":"SecondaryMastCollider (1)","translation":[0.215,1.121,0],"scale":[0.065,2.25,0.15]},{"name":"SecondaryMastCollider (2)","translation":[-0.215,1.121,2.514571E-08],"scale":[0.065,2.25,0.149999991]},{"name":"Colliders","children":[9,10]},{"name":"SecondaryMast","children":[8,11],"mesh":2,"translation":[0,-0.6319,0.0138]},{"name":"MainMastCollider (1)","translation":[0.282,1.107,-0.017],"scale":[0.015,2.22,0.19]},{"name":"MainMastCollider (2)","translation":[-0.282,1.107,-0.017],"scale":[0.015,2.22,0.19]},{"name":"Colliders","children":[13,14],"translation":[0,-0.6319,0.013800025]},{"name":"MainMast","children":[12,15],"mesh":3,"translation":[0,0.7239,1.3412]},{"name":"Lever (1)","mesh":4,"translation":[0.0550000072,0,0]},{"name":"Lever (2)","mesh":4},{"name":"Lever (3)","mesh":4,"translation":[-0.0550000072,0,0]},{"name":"Levers","children":[17,18,19],"translation":[-0.2177,1.0648,0.39],"rotation":[-0.08715578,0,0,0.9961947]},{"name":"MechanicalParts","children":[16,20]},{"name":"SteeringWheel","mesh":5},{"name":"SteerinWheel","children":[22],"translation":[0.102,1.577,0.499],"rotation":[-0.182235554,0,0,0.9832549]},{"name":"SignalLightsControl","mesh":6,"translation":[0.18318,1.47,0.5398]},{"name":"GasPedal","mesh":7,"translation":[0,0.83,0.65]},{"name":"BrakesPedal","mesh":8,"translation":[0.1,0.83,0.65]},{"name":"ClutchPedal","mesh":9,"translation":[0.2,0.83,0.65]},{"name":"VehicleParts","children":[23,24,25,26,27]},{"name":"FrontLeftWheel_Mesh","mesh":10,"translation":[0.5,0.341,0.967]},{"name":"FrontRightWheel_Mesh","mesh":10,"translation":[-0.5,0.341,0.967]},{"name":"RearLeftWheel_Mesh","mesh":11,"translation":[0.5,0.275,-0.916]},{"name":"RearRightWheel_Mesh","mesh":11,"translation":[-0.5,0.275,-0.916]},{"name":"Wheels Meshes","children":[29,30,31,32]},{"name":"FrontLeftWheel_Collider","translation":[0.5,0.341,0.967]},{"name":"FrontRightWheel_Collider","translation":[-0.5,0.341,0.967]},{"name":"RearLeftWheel_Collider","translation":[0.5,0.275,-0.916]},{"name":"RearRightWheel_Collider","translation":[-0.5,0.275,-0.916]},{"name":"Wheels Colliders","children":[34,35,36,37]},{"name":"Wheels","children":[33,38]},{"name":"TankCollider","translation":[0,1.42,-0.671]},{"name":"BodyCollider (1)","translation":[0,0.528,-0.176],"scale":[1.16,0.6,2.55]},{"name":"BodyCollider (2)","translation":[0,1.019,-0.895],"scale":[0.95,0.4,0.85]},{"name":"BodyCollider (3)","translation":[0,2.265,0.124],"scale":[0.95,0.07,1.06]},{"name":"BodyCollider (4)","translation":[0.437,1.523,-0.389],"scale":[0.1,1.42,0.1]},{"name":"BodyCollider (5)","translation":[-0.437,1.523,-0.389],"scale":[0.099999994,1.42,0.099999994]},{"name":"BodyCollider (6)","translation":[0.437,1.523,0.741],"rotation":[-0.122822128,0,0,0.9924287],"scale":[0.08,1.42,0.08]},{"name":"BodyCollider (7)","translation":[-0.437,1.523,0.741],"rotation":[-0.122822128,0,0,0.9924287],"scale":[0.08,1.42000008,0.08]},{"name":"BodyCollider (8)","translation":[0,1.0601,0.8847],"rotation":[-0.128882125,0,0,0.991659939],"scale":[0.8,0.55,0.03]},{"name":"BodyCollider (9)","translation":[0,0.995,-0.089],"scale":[0.75,0.399999976,0.849999964]},{"name":"Colliders","children":[40,41,42,43,44,45,46,47,48,49]},{"name":"ForksMovingSFX","translation":[0,1.221,1.324]},{"name":"ForksStartSFX","translation":[0,1.221,1.324]},{"name":"ForksStopSFX","translation":[0,1.221,1.324]},{"name":"EngineStartSFX","translation":[0,0.9,-0.9]},{"name":"EngineSFX","translation":[0,0.9,-0.9]},{"name":"HornSFX","translation":[0,1.221,0]},{"name":"WheelsSkiddingSFX"},{"name":"BackUpBeeperSFX","translation":[0,2.172,-0.39]},{"name":"SFX","children":[51,52,53,54,55,56,57,58]},{"name":"HeadlightLeft","translation":[0.435,1.533,0.841],"rotation":[0.0436194055,0,0,0.9990483]},{"name":"HeadlightRight","translation":[-0.435,1.533,0.841],"rotation":[0.0436194055,0,0,0.9990483]},{"name":"ReverseAlarmLight","translation":[0,-0.0093,-0.0613999963]},{"name":"ReverseAlarmLightPivot","children":[62],"translation":[0,2.157,-0.3996]},{"name":"Lights","children":[60,61,63]},{"name":"COM"},{"name":"RWS_Forklift_01_Blue","children":[0,21,28,39,50,59,64,65]}],"buffers":[{"uri":"ForkliftLPG.bin","byteLength":362088}],"bufferViews":[{"buffer":0,"byteLength":16272},{"buffer":0,"byteLength":1296,"byteOffset":16272},{"buffer":0,"byteLength":1392,"byteOffset":17568},{"buffer":0,"byteLength":2808,"byteOffset":18960},{"buffer":0,"byteLength":552,"byteOffset":21768},{"buffer":0,"byteLength":2604,"byteOffset":22320},{"buffer":0,"byteLength":456,"byteOffset":24924},{"buffer":0,"byteLength":312,"byteOffset":25380},{"buffer":0,"byteLength":312,"byteOffset":25692},{"buffer":0,"byteLength":312,"byteOffset":26004},{"buffer":0,"byteLength":6504,"byteOffset":26316},{"buffer":0,"byteLength":6504,"byteOffset":32820},{"buffer":0,"byteLength":2600,"byteOffset":39324,"byteStride":52},{"buffer":0,"byteLength":2600,"byteOffset":41924,"byteStride":52},{"buffer":0,"byteLength":158080,"byteOffset":44524,"byteStride":52},{"buffer":0,"byteLength":10400,"byteOffset":202604,"byteStride":52},{"buffer":0,"byteLength":15184,"byteOffset":213004,"byteStride":52},{"buffer":0,"byteLength":29120,"byteOffset":228188,"byteStride":52},{"buffer":0,"byteLength":3952,"byteOffset":257308,"byteStride":52},{"buffer":0,"byteLength":15600,"byteOffset":261260,"byteStride":52},{"buffer":0,"byteLength":3432,"byteOffset":276860,"byteStride":52},{"buffer":0,"byteLength":2600,"byteOffset":280292,"byteStride":52},{"buffer":0,"byteLength":39156,"byteOffset":282892,"byteStride":52},{"buffer":0,"byteLength":40040,"byteOffset":322048,"byteStride":52}],"accessors":[{"bufferView":14,"componentType":5126,"count":3040,"type":"VEC3","max":[0.65765965,2.30481315,1.36750937],"min":[-0.65765965,0.165948629,-1.4526186]},{"bufferView":14,"componentType":5126,"count":3040,"type":"VEC3","byteOffset":12},{"bufferView":14,"componentType":5126,"count":3040,"type":"VEC4","byteOffset":24},{"bufferView":14,"componentType":5121,"count":3040,"type":"VEC4","byteOffset":40},{"bufferView":14,"componentType":5126,"count":3040,"type":"VEC2","byteOffset":44},{"bufferView":0,"componentType":5123,"count":8100,"type":"SCALAR"},{"bufferView":0,"componentType":5123,"count":36,"type":"SCALAR","byteOffset":16200},{"bufferView":15,"componentType":5126,"count":200,"type":"VEC3","max":[0.491508484,1.03512788,1.027031],"min":[-0.491508484,0,-0.0453245938]},{"bufferView":15,"componentType":5126,"count":200,"type":"VEC3","byteOffset":12},{"bufferView":15,"componentType":5126,"count":200,"type":"VEC4","byteOffset":24},{"bufferView":15,"componentType":5121,"count":200,"type":"VEC4","byteOffset":40},{"bufferView":15,"componentType":5126,"count":200,"type":"VEC2","byteOffset":44},{"bufferView":1,"componentType":5123,"count":648,"type":"SCALAR"},{"bufferView":16,"componentType":5126,"count":292,"type":"VEC3","max":[0.3652861,2.257737,0.09054962],"min":[-0.3652861,-0.000195980072,-0.221931875]},{"bufferView":16,"componentType":5126,"count":292,"type":"VEC3","byteOffset":12},{"bufferView":16,"componentType":5126,"count":292,"type":"VEC4","byteOffset":24},{"bufferView":16,"componentType":5121,"count":292,"type":"VEC4","byteOffset":40},{"bufferView":16,"componentType":5126,"count":292,"type":"VEC2","byteOffset":44},{"bufferView":2,"componentType":5123,"count":696,"type":"SCALAR"},{"bufferView":17,"componentType":5126,"count":560,"type":"VEC3","max":[0.381367326,1.58771038,0.09262648],"min":[-0.381367326,-0.6352225,-0.2640633]},{"bufferView":17,"componentType":5126,"count":560,"type":"VEC3","byteOffset":12},{"bufferView":17,"componentType":5126,"count":560,"type":"VEC4","byteOffset":24},{"bufferView":17,"componentType":5121,"count":560,"type":"VEC4","byteOffset":40},{"bufferView":17,"componentType":5126,"count":560,"type":"VEC2","byteOffset":44},{"bufferView":3,"componentType":5123,"count":1404,"type":"SCALAR"},{"bufferView":18,"componentType":5126,"count":76,"type":"VEC3","max":[0.0248391628,0.4848305,0.0286817327],"min":[-0.024839133,-0.020117417,-0.0286817551]},{"bufferView":18,"componentType":5126,"count":76,"type":"VEC3","byteOffset":12},{"bufferView":18,"componentType":5126,"count":76,"type":"VEC4","byteOffset":24},{"bufferView":18,"componentType":5121,"count":76,"type":"VEC4","byteOffset":40},{"bufferView":18,"componentType":5126,"count":76,"type":"VEC2","byteOffset":44},{"bufferView":4,"componentType":5123,"count":276,"type":"SCALAR"},{"bufferView":19,"componentType":5126,"count":300,"type":"VEC3","max":[0.169259012,0.09918475,0.169259012],"min":[-0.169259012,-0.125182569,-0.169259012]},{"bufferView":19,"componentType":5126,"count":300,"type":"VEC3","byteOffset":12},{"bufferView":19,"componentType":5126,"count":300,"type":"VEC4","byteOffset":24},{"bufferView":19,"componentType":5121,"count":300,"type":"VEC4","byteOffset":40},{"bufferView":19,"componentType":5126,"count":300,"type":"VEC2","byteOffset":44},{"bufferView":5,"componentType":5123,"count":1302,"type":"SCALAR"},{"bufferView":20,"componentType":5126,"count":66,"type":"VEC3","max":[0.13499999,0.0118148271,0.01364258],"min":[-0.004419476,-0.0118148252,-0.0136425858]},{"bufferView":20,"componentType":5126,"count":66,"type":"VEC3","byteOffset":12},{"bufferView":20,"componentType":5126,"count":66,"type":"VEC4","byteOffset":24},{"bufferView":20,"componentType":5121,"count":66,"type":"VEC4","byteOffset":40},{"bufferView":20,"componentType":5126,"count":66,"type":"VEC2","byteOffset":44},{"bufferView":6,"componentType":5123,"count":228,"type":"SCALAR"},{"bufferView":12,"componentType":5126,"count":50,"type":"VEC3","max":[0.0364112854,0.18498823,0.127735421],"min":[-0.0364112854,0,-0.008437306]},{"bufferView":12,"componentType":5126,"count":50,"type":"VEC3","byteOffset":12},{"bufferView":12,"componentType":5126,"count":50,"type":"VEC4","byteOffset":24},{"bufferView":12,"componentType":5121,"count":50,"type":"VEC4","byteOffset":40},{"bufferView":12,"componentType":5126,"count":50,"type":"VEC2","byteOffset":44},{"bufferView":7,"componentType":5123,"count":156,"type":"SCALAR"},{"bufferView":21,"componentType":5126,"count":50,"type":"VEC3","max":[0.0364112854,0.140634775,0.127692327],"min":[-0.0364112854,0,0.0288695842]},{"bufferView":21,"componentType":5126,"count":50,"type":"VEC3","byteOffset":12},{"bufferView":21,"componentType":5126,"count":50,"type":"VEC4","byteOffset":24},{"bufferView":21,"componentType":5121,"count":50,"type":"VEC4","byteOffset":40},{"bufferView":21,"componentType":5126,"count":50,"type":"VEC2","byteOffset":44},{"bufferView":8,"componentType":5123,"count":156,"type":"SCALAR"},{"bufferView":13,"componentType":5126,"count":50,"type":"VEC3","max":[0.0227570534,0.140634775,0.127692327],"min":[-0.0227570534,0,0.0288695842]},{"bufferView":13,"componentType":5126,"count":50,"type":"VEC3","byteOffset":12},{"bufferView":13,"componentType":5126,"count":50,"type":"VEC4","byteOffset":24},{"bufferView":13,"componentType":5121,"count":50,"type":"VEC4","byteOffset":40},{"bufferView":13,"componentType":5126,"count":50,"type":"VEC2","byteOffset":44},{"bufferView":9,"componentType":5123,"count":156,"type":"SCALAR"},{"bufferView":22,"componentType":5126,"count":753,"type":"VEC3","max":[0.123034306,0.336940765,0.336940765],"min":[-0.123034306,-0.336940765,-0.336940765]},{"bufferView":22,"componentType":5126,"count":753,"type":"VEC3","byteOffset":12},{"bufferView":22,"componentType":5126,"count":753,"type":"VEC4","byteOffset":24},{"bufferView":22,"componentType":5121,"count":753,"type":"VEC4","byteOffset":40},{"bufferView":22,"componentType":5126,"count":753,"type":"VEC2","byteOffset":44},{"bufferView":10,"componentType":5123,"count":3252,"type":"SCALAR"},{"bufferView":23,"componentType":5126,"count":770,"type":"VEC3","max":[0.116081834,0.271123856,0.2711239],"min":[-0.116081893,-0.271123856,-0.2711239]},{"bufferView":23,"componentType":5126,"count":770,"type":"VEC3","byteOffset":12},{"bufferView":23,"componentType":5126,"count":770,"type":"VEC4","byteOffset":24},{"bufferView":23,"componentType":5121,"count":770,"type":"VEC4","byteOffset":40},{"bufferView":23,"componentType":5126,"count":770,"type":"VEC2","byteOffset":44},{"bufferView":11,"componentType":5123,"count":3252,"type":"SCALAR"}],"images":[{"name":"Forklift_01_Normal.png","uri":"Forklift_01_Normal.png","mimeType":"image/png"},{"name":"Forklift_01_Base_Color_Blue.jpg","uri":"Forklift_01_Base_Color_Blue.jpg","mimeType":"image/jpeg"},{"name":"Forklift_01_Blue_MaskMap.jpg","uri":"Forklift_01_Blue_MaskMap.jpg","mimeType":"image/jpeg"},{"name":"VehicleControls_01_Normal.png","uri":"VehicleControls_01_Normal.png","mimeType":"image/png"},{"name":"VehicleControls_01_Base_Color.jpg","uri":"VehicleControls_01_Base_Color.jpg","mimeType":"image/jpeg"},{"name":"VehicleControls_01_MaskMap.jpg","uri":"VehicleControls_01_MaskMap.jpg","mimeType":"image/jpeg"},{"name":"ForkliftWheels_01_Normal.png","uri":"ForkliftWheels_01_Normal.png","mimeType":"image/png"},{"name":"ForkliftWheels_01_Base_Color_Blue.jpg","uri":"ForkliftWheels_01_Base_Color_Blue.jpg","mimeType":"image/jpeg"},{"name":"ForkliftWheels_01_Blue_MaskMap.jpg","uri":"ForkliftWheels_01_Blue_MaskMap.jpg","mimeType":"image/jpeg"}],"materials":[{"name":"Forklift_01_Blue","pbrMetallicRoughness":{"baseColorTexture":{"index":1},"metallicRoughnessTexture":{"index":2}},"normalTexture":{"index":0,"scale":0.5},"occlusionTexture":{"index":2}},{"name":"Forklift_01_Mirrors","pbrMetallicRoughness":{"roughnessFactor":0}},{"name":"VehicleControls_01","pbrMetallicRoughness":{"baseColorTexture":{"index":4},"metallicRoughnessTexture":{"index":5}},"normalTexture":{"index":3},"occlusionTexture":{"index":5}},{"name":"ForkliftWheels_01_Blue","pbrMetallicRoughness":{"baseColorTexture":{"index":7},"metallicRoughnessTexture":{"index":8}},"normalTexture":{"index":6},"occlusionTexture":{"index":8}}],"meshes":[{"name":"ForkliftBodywork_low","primitives":[{"attributes":{"POSITION":0,"NORMAL":1,"TANGENT":2,"TEXCOORD_0":4,"COLOR_0":3},"indices":5,"material":0},{"attributes":{"POSITION":0,"NORMAL":1,"TANGENT":2,"TEXCOORD_0":4,"COLOR_0":3},"indices":6,"material":1}]},{"name":"ForkliftForks_low","primitives":[{"attributes":{"POSITION":7,"NORMAL":8,"TANGENT":9,"TEXCOORD_0":11,"COLOR_0":10},"indices":12,"material":0}]},{"name":"ForkliftSecondaryMast_low","primitives":[{"attributes":{"POSITION":13,"NORMAL":14,"TANGENT":15,"TEXCOORD_0":17,"COLOR_0":16},"indices":18,"material":0}]},{"name":"ForkliftMainMast_low","primitives":[{"attributes":{"POSITION":19,"NORMAL":20,"TANGENT":21,"TEXCOORD_0":23,"COLOR_0":22},"indices":24,"material":0}]},{"name":"VC_Lever_low","primitives":[{"attributes":{"POSITION":25,"NORMAL":26,"TANGENT":27,"TEXCOORD_0":29,"COLOR_0":28},"indices":30,"material":2}]},{"name":"VC_SteeringWheel_low","primitives":[{"attributes":{"POSITION":31,"NORMAL":32,"TANGENT":33,"TEXCOORD_0":35,"COLOR_0":34},"indices":36,"material":2}]},{"name":"VC_SignalLightsControl_low","primitives":[{"attributes":{"POSITION":37,"NORMAL":38,"TANGENT":39,"TEXCOORD_0":41,"COLOR_0":40},"indices":42,"material":2}]},{"name":"VC_GasPedal_low","primitives":[{"attributes":{"POSITION":43,"NORMAL":44,"TANGENT":45,"TEXCOORD_0":47,"COLOR_0":46},"indices":48,"material":2}]},{"name":"VC_BrakesPedal_low","primitives":[{"attributes":{"POSITION":49,"NORMAL":50,"TANGENT":51,"TEXCOORD_0":53,"COLOR_0":52},"indices":54,"material":2}]},{"name":"VC_ClutchPedal_low","primitives":[{"attributes":{"POSITION":55,"NORMAL":56,"TANGENT":57,"TEXCOORD_0":59,"COLOR_0":58},"indices":60,"material":2}]},{"name":"ForkliftFrontWheels_low","primitives":[{"attributes":{"POSITION":61,"NORMAL":62,"TANGENT":63,"TEXCOORD_0":65,"COLOR_0":64},"indices":66,"material":3}]},{"name":"ForkliftRearWheels_low","primitives":[{"attributes":{"POSITION":67,"NORMAL":68,"TANGENT":69,"TEXCOORD_0":71,"COLOR_0":70},"indices":72,"material":3}]}],"scene":0,"scenes":[{"name":"RWS_Forklift_01_Blue","nodes":[66]}],"textures":[{"source":0},{"source":1},{"source":2},{"source":3},{"source":4},{"source":5},{"source":6},{"source":7},{"source":8}]}