{"asset":{"version":"2.0","generator":"Unity 6000.2.4f1 glTFast 6.0.1"},"nodes":[{"name":"Tire_R","mesh":0,"translation":[-0.19136709,-0.146725163,0.314302653],"rotation":[5.96046448E-08,4.371139E-08,-2.60540177E-15,1]},{"name":"Rig_tire_R","children":[0],"translation":[0.191367149,0.146725148,-0.314302653]},{"name":"Tire_F","mesh":1,"translation":[-1.54305511E-07,-0.146725148,-1.562694],"rotation":[2.38418579E-07,4.371139E-08,4.37113776E-08,1]},{"name":"Rig_tire_F","children":[2],"translation":[3.051758E-08,0.146725312,1.5626936],"rotation":[1,-4.371139E-08,-4.371139E-08,-1.849453E-15]},{"name":"Hose_2_1","mesh":2,"translation":[0,-0.258186758,-1.29559493],"rotation":[-2.646978E-23,0,0,1]},{"name":"Hose_3_4","mesh":3,"translation":[0,-0.258186758,-1.29559493],"rotation":[-2.646978E-23,0,0,1]},{"name":"Lift_1","mesh":4,"translation":[0,-0.2581868,-1.29559493]},{"name":"Must4","mesh":5,"translation":[0,-0.8662955,-0.8601224],"rotation":[2.555595E-14,0,0,1],"scale":[0.556068,0.556068,0.556068]},{"name":"Rig4mast_4","children":[7],"translation":[0,-7.62939436E-08,0],"rotation":[-1.88737914E-15,0,0,1],"scale":[1.21285,1.21285,1.21285]},{"name":"Must3","mesh":6,"translation":[0,-1.050686,-1.0431993],"rotation":[1.05354974E-14,0,0,1],"scale":[0.674427,0.674427,0.674427]},{"name":"Rig_mast_3","children":[8,9],"translation":[0,1.52587887E-07,0],"rotation":[1.11022256E-16,0,0,1],"scale":[1.222525,1.222525,1.222525]},{"name":"Mast-2","mesh":7,"translation":[0,-1.28449,-1.2753371],"scale":[0.824504,0.824504,0.824504]},{"name":"Rig_mast_2","children":[10,11],"translation":[0,1.37206912,0.251197547],"rotation":[2.10942375E-15,0,0,1],"scale":[1.21285,1.21285,1.21285]},{"name":"Mast-1","mesh":8,"translation":[0,-0.258186638,-1.29559493],"rotation":[1.42108547E-14,-1.24235238E-21,-8.742278E-08,1]},{"name":"Rig_mast_1","children":[4,5,6,12,13],"translation":[0,0.258186728,0.63528347],"rotation":[5.96046448E-08,0,0,1]},{"name":"lever4","mesh":9,"translation":[-0.23329784,-1.81198118E-07,0.0204634853],"rotation":[2.38418579E-07,7.54979E-08,-1.80001023E-14,1]},{"name":"lever3","mesh":10,"translation":[-0.23329787,-2.86102289E-08,0.0204634853],"rotation":[2.38418579E-07,7.54979E-08,-1.80001023E-14,1]},{"name":"lever2","mesh":11,"translation":[-0.23329784,-2.86102289E-08,0.0204634853],"rotation":[2.38418579E-07,7.54979E-08,-1.80001023E-14,1]},{"name":"lever1","mesh":12,"translation":[-0.23329787,-2.86102289E-08,0.0204634853],"rotation":[2.38418579E-07,7.54979E-08,-1.80001023E-14,1]},{"name":"Handle","mesh":13,"rotation":[5.96046448E-08,0,0,1]},{"name":"Body","mesh":14,"translation":[0,-2.85616348E-08,1.24846865E-15]},{"name":"Light","mesh":15,"translation":[0,-2.85616348E-08,1.24846865E-15]},{"name":"Shadow","mesh":16,"translation":[0,0.01,0]},{"name":"HeadLight","children":[24],"translation":[-0.4849987,2.343,0.4958991],"rotation":[0,0,1,0]},{"name":"HeadLight_Orientation","rotation":[0,-1,0,-4.371139E-08],"extensions":{"KHR_lights_punctual":{"light":0}}},{"name":"LineLight","children":[26],"translation":[-0.012,2.3503,-0.549400449],"rotation":[0.828241348,0,0,0.5603716]},{"name":"LineLight_Orientation","rotation":[0,-1,0,-4.371139E-08],"extensions":{"KHR_lights_punctual":{"light":1}}},{"name":"Reachlift","children":[1,3,14,15,16,17,18,19,20,21,22,23,25],"rotation":[2.18556941E-08,0,0,1]},{"name":"Reachlift","children":[27]}],"extensionsRequired":["KHR_materials_unlit","KHR_lights_punctual"],"extensionsUsed":["KHR_materials_unlit","KHR_lights_punctual"],"buffers":[{"uri":"Reachlift.bin","byteLength":2804040}],"bufferViews":[{"buffer":0,"byteLength":12960},{"buffer":0,"byteLength":19584,"byteOffset":12960},{"buffer":0,"byteLength":21120,"byteOffset":32544},{"buffer":0,"byteLength":6480,"byteOffset":53664},{"buffer":0,"byteLength":348,"byteOffset":60144},{"buffer":0,"byteLength":48948,"byteOffset":60492},{"buffer":0,"byteLength":71496,"byteOffset":109440},{"buffer":0,"byteLength":67356,"byteOffset":180936},{"buffer":0,"byteLength":42636,"byteOffset":248292},{"buffer":0,"byteLength":1872,"byteOffset":290928},{"buffer":0,"byteLength":4416,"byteOffset":292800},{"buffer":0,"byteLength":4416,"byteOffset":297216},{"buffer":0,"byteLength":4416,"byteOffset":301632},{"buffer":0,"byteLength":3684,"byteOffset":306048},{"buffer":0,"byteLength":57948,"byteOffset":309732},{"buffer":0,"byteLength":180,"byteOffset":367680},{"buffer":0,"byteLength":12,"byteOffset":367860},{"buffer":0,"byteLength":60480,"byteOffset":367872,"byteStride":48},{"buffer":0,"byteLength":83856,"byteOffset":428352,"byteStride":48},{"buffer":0,"byteLength":5088,"byteOffset":512208,"byteStride":48},{"buffer":0,"byteLength":1920,"byteOffset":517296,"byteStride":48},{"buffer":0,"byteLength":192,"byteOffset":519216,"byteStride":48},{"buffer":0,"byteLength":120624,"byteOffset":519408,"byteStride":56},{"buffer":0,"byteLength":37632,"byteOffset":640032,"byteStride":56},{"buffer":0,"byteLength":323904,"byteOffset":677664,"byteStride":56},{"buffer":0,"byteLength":520520,"byteOffset":1001568,"byteStride":56},{"buffer":0,"byteLength":450912,"byteOffset":1522088,"byteStride":56},{"buffer":0,"byteLength":286496,"byteOffset":1973000,"byteStride":56},{"buffer":0,"byteLength":11424,"byteOffset":2259496,"byteStride":56},{"buffer":0,"byteLength":33096,"byteOffset":2270920,"byteStride":56},{"buffer":0,"byteLength":33096,"byteOffset":2304016,"byteStride":56},{"buffer":0,"byteLength":33096,"byteOffset":2337112,"byteStride":56},{"buffer":0,"byteLength":21168,"byteOffset":2370208,"byteStride":56},{"buffer":0,"byteLength":412664,"byteOffset":2391376,"byteStride":56}],"accessors":[{"bufferView":17,"componentType":5126,"count":1260,"type":"VEC3","max":[0.3212272,0.299999952,-0.164302409],"min":[0.061506927,-2.98023224E-07,-0.464302659]},{"bufferView":17,"componentType":5126,"count":1260,"type":"VEC3","byteOffset":12},{"bufferView":17,"componentType":5126,"count":1260,"type":"VEC4","byteOffset":24},{"bufferView":17,"componentType":5126,"count":1260,"type":"VEC2","byteOffset":40},{"bufferView":0,"componentType":5123,"count":6480,"type":"SCALAR"},{"bufferView":18,"componentType":5126,"count":1747,"type":"VEC3","max":[0.59856385,0.293438,1.70940614],"min":[-0.5985629,1.28149986E-05,1.415981]},{"bufferView":18,"componentType":5126,"count":1747,"type":"VEC3","byteOffset":12},{"bufferView":18,"componentType":5126,"count":1747,"type":"VEC4","byteOffset":24},{"bufferView":18,"componentType":5126,"count":1747,"type":"VEC2","byteOffset":40},{"bufferView":1,"componentType":5123,"count":9792,"type":"SCALAR"},{"bufferView":22,"componentType":5126,"count":2154,"type":"VEC3","max":[0.31166935,2.25684547,1.54327178],"min":[-0.315124571,0.177561283,1.24826121]},{"bufferView":22,"componentType":5126,"count":2154,"type":"VEC3","byteOffset":12},{"bufferView":22,"componentType":5126,"count":2154,"type":"VEC4","byteOffset":24},{"bufferView":22,"componentType":5126,"count":2154,"type":"VEC2","byteOffset":40},{"bufferView":22,"componentType":5126,"count":2154,"type":"VEC2","byteOffset":48},{"bufferView":2,"componentType":5123,"count":10560,"type":"SCALAR"},{"bufferView":23,"componentType":5126,"count":672,"type":"VEC3","max":[0.115668207,1.47517085,1.69058955],"min":[-0.117403239,0.207318187,1.54785669]},{"bufferView":23,"componentType":5126,"count":672,"type":"VEC3","byteOffset":12},{"bufferView":23,"componentType":5126,"count":672,"type":"VEC4","byteOffset":24},{"bufferView":23,"componentType":5126,"count":672,"type":"VEC2","byteOffset":40},{"bufferView":23,"componentType":5126,"count":672,"type":"VEC2","byteOffset":48},{"bufferView":3,"componentType":5123,"count":3240,"type":"SCALAR"},{"bufferView":19,"componentType":5126,"count":106,"type":"VEC3","max":[0.4668496,0.296102226,1.67922854],"min":[-0.466849,0.179270238,0.33878392]},{"bufferView":19,"componentType":5126,"count":106,"type":"VEC3","byteOffset":12},{"bufferView":19,"componentType":5126,"count":106,"type":"VEC4","byteOffset":24},{"bufferView":19,"componentType":5126,"count":106,"type":"VEC2","byteOffset":40},{"bufferView":4,"componentType":5123,"count":174,"type":"SCALAR"},{"bufferView":24,"componentType":5126,"count":5784,"type":"VEC3","max":[0.4488151,1.41035092,2.693544],"min":[-0.4488148,0.0363416672,1.57129633]},{"bufferView":24,"componentType":5126,"count":5784,"type":"VEC3","byteOffset":12},{"bufferView":24,"componentType":5126,"count":5784,"type":"VEC4","byteOffset":24},{"bufferView":24,"componentType":5126,"count":5784,"type":"VEC2","byteOffset":40},{"bufferView":24,"componentType":5126,"count":5784,"type":"VEC2","byteOffset":48},{"bufferView":5,"componentType":5123,"count":24474,"type":"SCALAR"},{"bufferView":25,"componentType":5126,"count":9295,"type":"VEC3","max":[0.248444319,2.26809859,1.71297407],"min":[-0.248431623,0.00751328468,1.49836969]},{"bufferView":25,"componentType":5126,"count":9295,"type":"VEC3","byteOffset":12},{"bufferView":25,"componentType":5126,"count":9295,"type":"VEC4","byteOffset":24},{"bufferView":25,"componentType":5126,"count":9295,"type":"VEC2","byteOffset":40},{"bufferView":25,"componentType":5126,"count":9295,"type":"VEC2","byteOffset":48},{"bufferView":6,"componentType":5123,"count":35748,"type":"SCALAR"},{"bufferView":26,"componentType":5126,"count":8052,"type":"VEC3","max":[0.322272837,2.2682786,1.712974],"min":[-0.322272956,0.02451849,1.38567317]},{"bufferView":26,"componentType":5126,"count":8052,"type":"VEC3","byteOffset":12},{"bufferView":26,"componentType":5126,"count":8052,"type":"VEC4","byteOffset":24},{"bufferView":26,"componentType":5126,"count":8052,"type":"VEC2","byteOffset":40},{"bufferView":26,"componentType":5126,"count":8052,"type":"VEC2","byteOffset":48},{"bufferView":7,"componentType":5123,"count":33678,"type":"SCALAR"},{"bufferView":27,"componentType":5126,"count":5116,"type":"VEC3","max":[0.442768455,2.34064078,1.710222],"min":[-0.442767739,0.0968806744,1.295686]},{"bufferView":27,"componentType":5126,"count":5116,"type":"VEC3","byteOffset":12},{"bufferView":27,"componentType":5126,"count":5116,"type":"VEC4","byteOffset":24},{"bufferView":27,"componentType":5126,"count":5116,"type":"VEC2","byteOffset":40},{"bufferView":27,"componentType":5126,"count":5116,"type":"VEC2","byteOffset":48},{"bufferView":8,"componentType":5123,"count":21318,"type":"SCALAR"},{"bufferView":28,"componentType":5126,"count":204,"type":"VEC3","max":[-0.0688778758,1.38547015,0.142859116],"min":[-0.09850693,1.2113378,0.113230154]},{"bufferView":28,"componentType":5126,"count":204,"type":"VEC3","byteOffset":12},{"bufferView":28,"componentType":5126,"count":204,"type":"VEC4","byteOffset":24},{"bufferView":28,"componentType":5126,"count":204,"type":"VEC2","byteOffset":40},{"bufferView":28,"componentType":5126,"count":204,"type":"VEC2","byteOffset":48},{"bufferView":9,"componentType":5123,"count":936,"type":"SCALAR"},{"bufferView":29,"componentType":5126,"count":591,"type":"VEC3","max":[0.01395527,1.47976685,0.142301],"min":[-0.02808201,1.27803564,0.0679523945]},{"bufferView":29,"componentType":5126,"count":591,"type":"VEC3","byteOffset":12},{"bufferView":29,"componentType":5126,"count":591,"type":"VEC4","byteOffset":24},{"bufferView":29,"componentType":5126,"count":591,"type":"VEC2","byteOffset":40},{"bufferView":29,"componentType":5126,"count":591,"type":"VEC2","byteOffset":48},{"bufferView":10,"componentType":5123,"count":2208,"type":"SCALAR"},{"bufferView":30,"componentType":5126,"count":591,"type":"VEC3","max":[0.0567667,1.479767,0.142301023],"min":[0.014729578,1.27803576,0.06795241]},{"bufferView":30,"componentType":5126,"count":591,"type":"VEC3","byteOffset":12},{"bufferView":30,"componentType":5126,"count":591,"type":"VEC4","byteOffset":24},{"bufferView":30,"componentType":5126,"count":591,"type":"VEC2","byteOffset":40},{"bufferView":30,"componentType":5126,"count":591,"type":"VEC2","byteOffset":48},{"bufferView":11,"componentType":5123,"count":2208,"type":"SCALAR"},{"bufferView":31,"componentType":5126,"count":591,"type":"VEC3","max":[0.09957832,1.479767,0.142301038],"min":[0.05754116,1.27803576,0.06795241]},{"bufferView":31,"componentType":5126,"count":591,"type":"VEC3","byteOffset":12},{"bufferView":31,"componentType":5126,"count":591,"type":"VEC4","byteOffset":24},{"bufferView":31,"componentType":5126,"count":591,"type":"VEC2","byteOffset":40},{"bufferView":31,"componentType":5126,"count":591,"type":"VEC2","byteOffset":48},{"bufferView":12,"componentType":5123,"count":2208,"type":"SCALAR"},{"bufferView":32,"componentType":5126,"count":378,"type":"VEC3","max":[0.165849,1.40828347,-0.20571661],"min":[0.03137085,1.30265641,-0.4433229]},{"bufferView":32,"componentType":5126,"count":378,"type":"VEC3","byteOffset":12},{"bufferView":32,"componentType":5126,"count":378,"type":"VEC4","byteOffset":24},{"bufferView":32,"componentType":5126,"count":378,"type":"VEC2","byteOffset":40},{"bufferView":32,"componentType":5126,"count":378,"type":"VEC2","byteOffset":48},{"bufferView":13,"componentType":5123,"count":1842,"type":"SCALAR"},{"bufferView":33,"componentType":5126,"count":7369,"type":"VEC3","max":[0.5786307,2.48449516,1.72054374],"min":[-0.578629732,0.097628355,-0.5391146]},{"bufferView":33,"componentType":5126,"count":7369,"type":"VEC3","byteOffset":12},{"bufferView":33,"componentType":5126,"count":7369,"type":"VEC4","byteOffset":24},{"bufferView":33,"componentType":5126,"count":7369,"type":"VEC2","byteOffset":40},{"bufferView":33,"componentType":5126,"count":7369,"type":"VEC2","byteOffset":48},{"bufferView":14,"componentType":5123,"count":28974,"type":"SCALAR"},{"bufferView":20,"componentType":5126,"count":40,"type":"VEC3","max":[0.4000417,2.39134812,0.479554355],"min":[-0.5679032,2.29482818,-0.5112538]},{"bufferView":20,"componentType":5126,"count":40,"type":"VEC3","byteOffset":12},{"bufferView":20,"componentType":5126,"count":40,"type":"VEC4","byteOffset":24},{"bufferView":20,"componentType":5126,"count":40,"type":"VEC2","byteOffset":40},{"bufferView":15,"componentType":5123,"count":90,"type":"SCALAR"},{"bufferView":21,"componentType":5126,"count":4,"type":"VEC3","max":[1.29753053,0.00300011877,2.70692468],"min":[-1.29753053,0.002999952,-1.11763072]},{"bufferView":21,"componentType":5126,"count":4,"type":"VEC3","byteOffset":12},{"bufferView":21,"componentType":5126,"count":4,"type":"VEC4","byteOffset":24},{"bufferView":21,"componentType":5126,"count":4,"type":"VEC2","byteOffset":40},{"bufferView":16,"componentType":5123,"count":6,"type":"SCALAR"}],"images":[{"name":"Reachlift_shadow.png","uri":"Reachlift_shadow.png","mimeType":"image/png"}],"materials":[{"name":"Reachlift","pbrMetallicRoughness":{"metallicFactor":0}},{"name":"Reachlift_light","pbrMetallicRoughness":{"baseColorFactor":[3067.98462,3067.98462,3067.98462,1],"metallicFactor":0}},{"name":"Reachlift_shadow","pbrMetallicRoughness":{"metallicFactor":0,"baseColorTexture":{"index":0}},"alphaMode":"BLEND","extensions":{"KHR_materials_unlit":{}}}],"meshes":[{"name":"Tire_R","primitives":[{"attributes":{"POSITION":0,"NORMAL":1,"TANGENT":2,"TEXCOORD_0":3},"indices":4,"material":0}]},{"name":"Tire_F","primitives":[{"attributes":{"POSITION":5,"NORMAL":6,"TANGENT":7,"TEXCOORD_0":8},"indices":9,"material":0}]},{"name":"Hose_2_1","primitives":[{"attributes":{"POSITION":10,"NORMAL":11,"TANGENT":12,"TEXCOORD_0":13,"TEXCOORD_1":14},"indices":15,"material":0}]},{"name":"Hose_3_4","primitives":[{"attributes":{"POSITION":16,"NORMAL":17,"TANGENT":18,"TEXCOORD_0":19,"TEXCOORD_1":20},"indices":21,"material":0}]},{"name":"Lift_1","primitives":[{"attributes":{"POSITION":22,"NORMAL":23,"TANGENT":24,"TEXCOORD_0":25},"indices":26,"material":0}]},{"name":"Must4","primitives":[{"attributes":{"POSITION":27,"NORMAL":28,"TANGENT":29,"TEXCOORD_0":30,"TEXCOORD_1":31},"indices":32,"material":0}]},{"name":"Must3","primitives":[{"attributes":{"POSITION":33,"NORMAL":34,"TANGENT":35,"TEXCOORD_0":36,"TEXCOORD_1":37},"indices":38,"material":0}]},{"name":"Mast-2","primitives":[{"attributes":{"POSITION":39,"NORMAL":40,"TANGENT":41,"TEXCOORD_0":42,"TEXCOORD_1":43},"indices":44,"material":0}]},{"name":"Mast-1","primitives":[{"attributes":{"POSITION":45,"NORMAL":46,"TANGENT":47,"TEXCOORD_0":48,"TEXCOORD_1":49},"indices":50,"material":0}]},{"name":"lever4","primitives":[{"attributes":{"POSITION":51,"NORMAL":52,"TANGENT":53,"TEXCOORD_0":54,"TEXCOORD_1":55},"indices":56,"material":0}]},{"name":"lever3","primitives":[{"attributes":{"POSITION":57,"NORMAL":58,"TANGENT":59,"TEXCOORD_0":60,"TEXCOORD_1":61},"indices":62,"material":0}]},{"name":"lever2","primitives":[{"attributes":{"POSITION":63,"NORMAL":64,"TANGENT":65,"TEXCOORD_0":66,"TEXCOORD_1":67},"indices":68,"material":0}]},{"name":"lever1","primitives":[{"attributes":{"POSITION":69,"NORMAL":70,"TANGENT":71,"TEXCOORD_0":72,"TEXCOORD_1":73},"indices":74,"material":0}]},{"name":"Handle","primitives":[{"attributes":{"POSITION":75,"NORMAL":76,"TANGENT":77,"TEXCOORD_0":78,"TEXCOORD_1":79},"indices":80,"material":0}]},{"name":"Body","primitives":[{"attributes":{"POSITION":81,"NORMAL":82,"TANGENT":83,"TEXCOORD_0":84,"TEXCOORD_1":85},"indices":86,"material":0}]},{"name":"Light","primitives":[{"attributes":{"POSITION":87,"NORMAL":88,"TANGENT":89,"TEXCOORD_0":90},"indices":91,"material":1}]},{"name":"Shadow","primitives":[{"attributes":{"POSITION":92,"NORMAL":93,"TANGENT":94,"TEXCOORD_0":95},"indices":96,"material":2}]}],"scene":0,"scenes":[{"name":"Reachlift","nodes":[28]}],"textures":[{"source":0}],"extensions":{"KHR_lights_punctual":{"lights":[{"type":"spot","name":"HeadLight","intensity":9341.672,"range":10,"spot":{"innerConeAngle":0.190259039,"outerConeAngle":0.2617994}},{"type":"spot","name":"LineLight","intensity":16802.0547,"range":10,"spot":{"innerConeAngle":0.145735,"outerConeAngle":0.625700533}}]}}}